<svg xmlns="http://www.w3.org/2000/svg" xmlns:xlink="http://www.w3.org/1999/xlink" width="4000" height="600" viewBox="0 0 4000 600"><defs><clipPath id="b"><rect width="4000" height="600"/></clipPath></defs><g id="a" clip-path="url(#b)"><rect width="4000" height="600" fill="rgba(255,255,255,0)"/><path d="M141.015-47.685H41.565L20.145,0H.51l81.6-178.5h18.615L182.325,0h-19.89Zm-6.885-15.3-42.84-95.88L48.45-62.985ZM361.08-178.5V0H345.525L230.775-144.84V0H211.9V-178.5H227.46L342.465-33.66V-178.5Zm58.14,0h72.675q28.305,0,49.98,11.348a82.8,82.8,0,0,1,33.66,31.62Q587.52-115.26,587.52-89.25T575.535-42.968a82.8,82.8,0,0,1-33.66,31.62Q520.2,0,491.895,0H419.22ZM490.875-16.32q23.46,0,41.055-9.307a67.609,67.609,0,0,0,27.285-25.755q9.69-16.447,9.69-37.868t-9.69-37.868a67.61,67.61,0,0,0-27.285-25.755q-17.6-9.307-41.055-9.308H438.09V-16.32ZM751.74,0l-40.8-57.375a129.3,129.3,0,0,1-14.28.765H648.72V0H629.85V-178.5h66.81q34.17,0,53.55,16.32t19.38,44.88q0,20.91-10.583,35.318T728.79-61.2L772.395,0ZM696.15-72.675q26.52,0,40.545-11.73T750.72-117.3q0-21.675-14.025-33.278t-40.545-11.6H648.72v89.505ZM940.44-16.32V0H814.215V-178.5h122.4v16.32H833.085v63.5h92.31V-82.62h-92.31v66.3Zm156.315-31.365H997.3L975.885,0H956.25l81.6-178.5h18.615L1138.065,0h-19.89Zm-6.885-15.3-42.84-95.88-42.84,95.88ZM1357.62-92.82q15.3,4.845,23.97,16.193t8.67,27.923q0,23.46-18.233,36.083T1318.86,0h-92.31V-178.5h87.21q32.64,0,50.108,12.5t17.467,33.915a43.528,43.528,0,0,1-6.247,23.2A43.758,43.758,0,0,1,1357.62-92.82ZM1267.6-147.39v42.075h41.055q15.3,0,23.2-5.355t7.905-15.81q0-10.455-7.905-15.683t-23.2-5.227Zm48.2,116.28q16.32,0,24.607-5.355T1348.7-53.04q0-22.185-32.9-22.185h-48.2V-31.11ZM1535.355,0,1500.93-49.725h-37.995V0h-41.31V-178.5h77.265q23.715,0,41.182,7.905t26.9,22.44q9.435,14.535,9.435,34.425t-9.562,34.3q-9.562,14.408-27.157,22.057L1579.725,0Zm-.765-113.73q0-15.045-9.69-23.078t-28.305-8.033h-33.66v62.22h33.66q18.615,0,28.305-8.16T1534.59-113.73ZM1726.6-38.25H1643.73L1627.92,0h-42.33l79.56-178.5h40.8L1785.765,0h-43.35ZM1713.6-69.615l-28.3-68.34-28.305,68.34ZM1968.09-178.5V0h-33.915L1845.18-108.375V0h-40.8V-178.5h34.17l88.74,108.375V-178.5Zm42.33,0h81.09q29.07,0,51.383,11.092t34.68,31.238q12.367,20.145,12.367,46.92t-12.367,46.92q-12.367,20.145-34.68,31.238T2091.51,0h-81.09Zm79.05,144.585q26.775,0,42.713-14.917T2148.12-89.25q0-25.5-15.937-40.418t-42.713-14.917h-37.74v110.67ZM2221.05-178.5h41.31V0h-41.31Z" transform="translate(916 468)" fill="#404040"/><path d="M583.482,307.651a182.436,182.436,0,0,0-104.054,32.394V249.621a39.621,39.621,0,1,0-79.241,0V442.8a183.323,183.323,0,1,0-72.242,198.635,39.618,39.618,0,0,0,78.646-6.814V539.092A183.309,183.309,0,1,0,583.482,307.651ZM223.3,600.6A109.657,109.657,0,1,1,332.952,490.946,109.657,109.657,0,0,1,223.3,600.6Zm360.187,0A109.657,109.657,0,1,1,693.139,490.946,109.657,109.657,0,0,1,583.482,600.6Z" transform="translate(60 -142)" fill="#0277bd" stroke="#222" stroke-width="1"/></g></svg>