<svg xmlns="http://www.w3.org/2000/svg" xmlns:xlink="http://www.w3.org/1999/xlink" width="4000" height="600" viewBox="0 0 4000 600"><defs><clipPath id="b"><rect width="4000" height="600"/></clipPath></defs><g id="a" clip-path="url(#b)"><rect width="4000" height="600" fill="#fff"/><text transform="translate(916 468)" fill="#222" font-size="255" font-family="Montserrat-Regular, Montserrat"><tspan x="0" y="0">ANDREA </tspan><tspan y="0" font-family="Montserrat-Bold, Montserrat" font-weight="700">BRANDI</tspan></text><path d="M583.482,307.651a182.436,182.436,0,0,0-104.054,32.394V249.621a39.621,39.621,0,1,0-79.241,0V442.8a183.323,183.323,0,1,0-72.242,198.635,39.618,39.618,0,0,0,78.646-6.814V539.092A183.309,183.309,0,1,0,583.482,307.651ZM223.3,600.6A109.657,109.657,0,1,1,332.952,490.946,109.657,109.657,0,0,1,223.3,600.6Zm360.187,0A109.657,109.657,0,1,1,693.139,490.946,109.657,109.657,0,0,1,583.482,600.6Z" transform="translate(60 -142)" fill="#0277bd" stroke="#222" stroke-width="1"/></g></svg>