<svg xmlns="http://www.w3.org/2000/svg" width="1262.3" height="200" version="1.1"><path d="M1.674 198.538c15.4-12.7 97.3-77.9 97.9-77.9.4 0 6.6 6.5 13.8 14.5 7.2 8 13.4 14.5 13.8 14.5.4 0 18.4-9.4 40-20.9l39.2-20.9 41.8-38.8c23-21.3 42.1-38.7 42.5-38.6.4.1 19.1 17.7 41.5 39.1 39.8 37.9 41.2 39.2 58.7 52.8 9.8 7.7 18 14 18.3 14 .2 0 20.2-23.9 44.5-53.1l44.1-53.1 8-14.5c4.4-8 8.2-14.7 8.6-15 .3-.3 5.5 5.5 13.2 15.1 18.7 23.1 62.4 76.1 63.6 77.1.9.8 2.8 0 16.9-7.2l15.8-8 23.5 7.9c22.2 7.4 23.5 7.8 24.6 6.9 1.4-1.2 35.3-42.3 58.7-71.3 9.4-11.7 17.3-21.1 17.6-21 .2.1 4 6.6 8.3 14.5 6.7 12 8.4 14.8 10.9 16.9 1.6 1.4 18 14 36.3 28l33.3 25.5 23.6.4 23.6.4 43.8-27.9c28.4-18.1 44.1-27.7 44.6-27.4.4.3 19.5 17.8 42.3 38.9l41.5 38.5 39.5 21c21.7 11.6 39.6 21 39.7 21 .1 0 6.3-6.7 13.6-14.8 7.4-8.2 13.6-14.8 13.8-14.8.4 0 40.9 32.5 90.3 72.4l9.3 7.5H.274l1.7-1.4z" fill="#404040"/></svg>